<svg
   xmlns="http://www.w3.org/2000/svg"
   width="24"
   height="24"
   viewBox="0 0 24 24">
    <path
       d="M -853.95312 39.705078 C -854.36623 39.705078 -854.66276 39.80777 -854.85742 40 L -855.00977 40 L -855.00195 40.210938 C -855.07585 40.357352 -855.125 40.524882 -855.125 40.736328 C -855.125 44.361328 -854.96875 49.798828 -854.65625 57.048828 C -854.51624 59.988965 -854.42478 62.427502 -854.3418 64.771484 C -854.28972 70.385766 -854.27791 76.539736 -854.3125 82.267578 C -854.37017 84.301646 -854.42537 86.30106 -854.51562 88.783203 C -854.73437 95.658203 -854.84375 100.79883 -854.84375 104.20508 C -854.84375 104.63026 -854.72358 104.93512 -854.49219 105.12891 L -854.49414 105.29297 L -854.2207 105.28711 C -854.06606 105.34484 -853.88424 105.37695 -853.67188 105.37695 C -851.48438 105.37695 -848.21875 105.33008 -843.875 105.23633 C -839.53125 105.14258 -836.26562 105.0957 -834.07812 105.0957 C -833.89375 105.0957 -833.5858 105.10974 -833.38672 105.11133 C -833.29864 107.20633 -833.24805 108.97302 -833.24805 110.31641 L -833.2168 114.50977 L -833.2793 119.00195 C -833.32469 122.26443 -833.36082 124.65113 -833.40625 126.63086 C -833.61643 130.57176 -833.98341 133.42891 -834.51172 135.16016 C -835.1785 137.31641 -836.16051 139.14453 -837.45898 140.64453 C -838.30124 141.55078 -839.91636 142.92578 -842.30273 144.76953 C -842.68877 145.08203 -842.88086 145.36328 -842.88086 145.61328 C -842.88086 145.83203 -842.72209 146.06641 -842.40625 146.31641 C -839.98478 148.28516 -837.52877 150.51953 -835.03711 153.01953 C -834.72127 153.36328 -834.44097 153.53516 -834.19531 153.53516 C -833.91456 153.53516 -833.44022 153.30078 -832.77344 152.83203 C -827.8954 149.36328 -824.50835 144.75391 -822.61328 139.00391 C -821.20953 134.75391 -820.50781 129.20703 -820.50781 122.36328 C -820.50781 121.93403 -820.52044 120.98635 -820.52344 120.43164 L -820.46875 119.50977 C -820.35075 119.5334 -820.23275 119.55859 -820.08789 119.55859 C -819.55664 119.55859 -818.74414 119.51172 -817.65039 119.41797 C -816.70826 119.33721 -816.07555 119.30807 -815.55078 119.29688 L -814.81445 119.29688 C -814.18945 119.31858 -813.41602 119.38151 -812.40039 119.51172 C -811.15039 119.63672 -810.21289 119.69922 -809.58789 119.69922 C -808.83789 119.69922 -808.46289 119.23047 -808.46289 118.29297 C -808.46289 115.48047 -808.54102 111.26172 -808.69727 105.63672 C -808.79593 102.08463 -808.85231 99.297734 -808.88867 96.867188 C -808.84187 94.156125 -808.75345 92.603526 -808.5625 91.957031 C -808.22107 91.576994 -807.64477 91.337483 -806.82227 91.246094 C -806.29102 91.183594 -804.00977 91.152344 -799.97852 91.152344 C -797.79102 91.152344 -794.50977 91.214844 -790.13477 91.339844 C -785.72852 91.464844 -782.44727 91.527344 -780.29102 91.527344 C -779.63477 91.527344 -779.30664 91.339844 -779.30664 90.964844 C -779.30664 90.402344 -779.33789 89.558594 -779.40039 88.433594 C -779.46289 87.277344 -779.49414 86.417969 -779.49414 85.855469 C -779.49414 85.324219 -779.46289 84.542969 -779.40039 83.511719 C -779.30664 82.449219 -779.25977 81.652344 -779.25977 81.121094 C -779.25977 80.825991 -779.38859 80.628744 -779.61719 80.507812 L -779.61133 80.300781 L -780.47852 80.375 C -783.50974 80.380656 -787.97928 80.517494 -793.97852 80.792969 C -800.07227 81.074219 -804.63477 81.214844 -807.66602 81.214844 C -808.57227 81.214844 -809.02539 80.152344 -809.02539 78.027344 L -809.02539 66.730469 C -809.02539 65.011719 -808.71289 64.027344 -808.08789 63.777344 C -807.96289 63.714844 -806.80664 63.667969 -804.61914 63.636719 L -801.19727 63.589844 C -798.38477 63.527344 -794.38477 63.621094 -789.19727 63.871094 C -783.63477 64.152344 -779.63477 64.292969 -777.19727 64.292969 C -776.54102 64.292969 -776.21289 63.996094 -776.21289 63.402344 C -776.21289 62.683594 -776.40039 61.121094 -776.77539 58.714844 C -776.93164 56.996094 -776.99414 55.714844 -776.96289 54.871094 C -777.11914 53.746094 -777.79102 53.230469 -778.97852 53.324219 C -787.72852 53.886719 -794.93164 54.199219 -800.58789 54.261719 C -804.77539 54.324219 -809.32227 54.308594 -814.22852 54.214844 C -817.94727 54.121094 -819.93164 54.074219 -820.18164 54.074219 C -820.99414 54.167969 -821.38477 54.542969 -821.35352 55.199219 L -821.35352 55.808594 C -820.9323 67.181311 -820.66258 75.233615 -820.51172 80.632812 C -820.68944 80.58304 -820.89304 80.550781 -821.14062 80.550781 C -821.77231 80.550781 -822.73669 80.597656 -824.03516 80.691406 C -825.33363 80.785156 -826.31564 80.832031 -826.98242 80.832031 C -827.6492 80.832031 -828.65081 80.785156 -829.98438 80.691406 C -831.31794 80.597656 -832.31759 80.550781 -832.98438 80.550781 C -833.50774 80.550781 -833.89421 80.672449 -834.14844 80.912109 L -834.35156 80.912109 L -834.33984 81.167969 C -834.45022 81.368131 -834.51172 81.611709 -834.51172 81.910156 C -834.51172 85.019286 -834.30302 89.654411 -833.90234 95.707031 C -836.52609 95.745329 -839.31927 95.767578 -842.32812 95.767578 C -842.89062 95.767578 -843.17188 92.298828 -843.17188 85.361328 C -843.17188 83.736328 -843.15625 81.267578 -843.125 77.955078 L -843.125 70.548828 C -843.125 67.205078 -843 62.205078 -842.75 55.548828 C -842.5 48.892578 -842.375 43.908203 -842.375 40.595703 C -842.375 40.001953 -842.75 39.705078 -843.5 39.705078 C -844.0625 39.705078 -844.9375 39.751953 -846.125 39.845703 C -847.3125 39.939453 -848.1875 39.986328 -848.75 39.986328 C -849.34375 39.986328 -850.21875 39.939453 -851.375 39.845703 C -852.53125 39.751953 -853.39063 39.705078 -853.95312 39.705078 z "
       />
</svg>
